<?xml version="1.0" encoding="UTF-8" standalone="no"?>
<!DOCTYPE svg PUBLIC "-//W3C//DTD SVG 1.1//EN" "http://www.w3.org/Graphics/SVG/1.1/DTD/svg11.dtd">
<svg width="100%" height="100%" viewBox="0 0 724 582" version="1.1" xmlns="http://www.w3.org/2000/svg" xmlns:xlink="http://www.w3.org/1999/xlink" xml:space="preserve" xmlns:serif="http://www.serif.com/" style="fill-rule:evenodd;clip-rule:evenodd;stroke-linecap:round;stroke-linejoin:round;stroke-miterlimit:1.5;">
    <g transform="matrix(1,0,0,1,-16852.3,-2924.92)">
        <g transform="matrix(1.0037,0,0,1.71798,15675.5,-510.976)">
            <g transform="matrix(5.48056,-2.74595e-31,-1.04447e-31,3.20192,-41716.7,1191.6)">
                <path d="M7956.93,252.781L7911.41,301.153C7911.41,301.153 7862.79,346.832 7837.14,346.025C7837.14,346.025 7830.37,343.819 7826.36,346.129C7824.76,347.053 7828.78,357.36 7834.71,355.137C7834.71,355.137 7854.97,359.762 7861.3,356.965C7861.59,356.751 7897.24,350.451 7903.28,354.832C7903.28,354.832 7925.9,361.575 7923.52,345.63C7923.52,345.63 7921.26,337.38 7921.91,333.174L7924.85,327.264" style="fill:none;stroke:white;stroke-width:0.64px;"/>
            </g>
        </g>
    </g>
</svg>
